<svg width="651" height="5" viewBox="0 0 651 5" fill="none" xmlns="http://www.w3.org/2000/svg">
<rect width="651" height="5" fill="#F5F5F5"/>
<g clip-path="url(#clip0_0_1)">
<rect width="1728" height="10049" transform="translate(-37 -5056)" fill="white"/>
<path d="M553.833 1.3345C553.833 1.3345 554.303 -14.4784 544.007 -26.5301C533.694 -38.5818 514.34 -44.2864 498.809 -41.1206C483.262 -37.9549 487.87 -31.122 493.104 -28.7555C498.339 -26.3734 504.686 -23.9599 500.078 -20.3397C495.486 -16.7038 493.261 -9.57313 500.392 -7.50444C507.522 -5.43575 514.026 -8.3037 521.799 -3.06929C529.573 2.18079 542.737 3.79499 553.833 1.3345Z" fill="#3DC19A"/>
<path d="M497.43 -36.6225C518.211 -35.4627 540.324 -23.8969 549.429 1.31918" stroke="#3B55CE" stroke-width="1.05" stroke-miterlimit="10" stroke-linecap="round"/>
<path d="M564.519 1.33422C564.519 1.33422 543.769 5.39324 533.347 -5.74948C522.91 -16.8922 535.479 -25.7468 527.423 -34.241C519.368 -42.7351 512.253 -42.265 510.357 -50.3203C508.46 -58.3757 518.318 -58.5951 517.362 -66.6504C516.406 -74.7058 506.251 -78.6708 510.623 -86.0522C512.676 -89.5314 519.619 -92.5717 530.009 -85.7388C535.306 -82.2596 541.371 -78.8275 547.342 -78.8275C554.63 -78.8275 560.115 -76.7275 560.946 -66.478C561.776 -56.213 561.635 -47.6404 570.145 -41.5127C581.617 -33.2693 589.202 -14.6354 564.519 1.33422Z" fill="#91DBAC"/>
<path d="M518.475 -84.3754C535.964 -69.6281 556.761 -40.259 564.519 1.33419" stroke="#3B55CE" stroke-width="1.05" stroke-miterlimit="10" stroke-linecap="round"/>
<path d="M266.362 2.93272C266.362 2.93272 266.879 -20.4654 257.288 -35.6358C247.697 -50.7905 214.19 -77.0409 203.753 -73.7968C195.51 -71.2267 194.522 -11.2503 215.946 2.91704H266.362V2.93272Z" fill="#40C7A7"/>
<path d="M207.373 -67.2621C207.373 -67.2621 234.062 -38.5982 243.951 2.93234" stroke="#3B55CE" stroke-width="1.05" stroke-miterlimit="10" stroke-linecap="round"/>
<path d="M261.346 3.40243C261.346 3.40243 257.789 -57.7493 249.53 -83.843C243.261 -103.621 232.338 -120.515 211.008 -132.379C196.935 -140.199 183.002 -139.306 186.952 -132.379C190.901 -125.452 203.423 -115.532 219.581 -89.5319C234.171 -66.0397 247.477 -20.3091 247.696 3.40243H261.346Z" fill="#22A482"/>
<path d="M194.192 -132.708C210.663 -122.49 230.331 -102.932 239.013 -77.7783C247.695 -52.6249 251.206 -10.1071 250.877 3.40209" stroke="#3B55CE" stroke-width="1.05" stroke-miterlimit="10" stroke-linecap="round"/>
<path d="M648.556 5H2.45938C1.09654 5 0 3.87301 0 2.50793C0 1.12698 1.1122 0 2.45938 0H648.54C649.903 0 651 1.12698 651 2.50793C651.015 3.87301 649.919 5 648.556 5Z" fill="#638BE2"/>
<path d="M407.988 -335H261.049C253.667 -335 247.681 -329.013 247.681 -321.632V-12.8957C247.681 -5.51423 253.667 0.472443 261.049 0.472443H407.988C415.37 0.472443 421.357 -5.51423 421.357 -12.8957V-321.632C421.357 -329.013 415.37 -335 407.988 -335ZM411.75 -30.8086C411.75 -26.9847 408.647 -23.8817 404.823 -23.8817H264.215C260.391 -23.8817 257.288 -26.9847 257.288 -30.8086V-303.719C257.288 -307.543 260.391 -310.646 264.215 -310.646H404.823C408.647 -310.646 411.75 -307.543 411.75 -303.719V-30.8086Z" fill="#416F75"/>
<path d="M150.703 -2.00339C151.095 -1.25114 150.797 0.269036 147.788 1.52279C144.764 2.77654 139.31 2.2437 137.147 1.82056C134.984 1.39742 133.652 0.77054 130.455 1.42876C127.243 2.10265 121.977 1.80489 120.394 0.45711C119.845 -0.185437 120.206 -1.50188 120.206 -1.50188L150.703 -2.00339Z" fill="#8FC9C6"/>
<path d="M121.914 -11.3905C121.475 -9.18074 119.673 -4.00903 120.19 -1.48585C122.447 0.426116 127.274 0.551493 130.894 -0.357477C134.514 -1.26645 137.069 0.582843 141.614 0.849265C146.08 1.11569 149.794 -0.122403 150.703 -2.00303C151.691 -4.04038 143.902 -5.62322 138.605 -7.2531C132.665 -9.07104 129.593 -12.0017 129.593 -12.0017L121.914 -11.3905Z" fill="#228C7E"/>
<path d="M77.0304 -0.0594806C76.5289 0.630083 75.0244 1.00621 72.5953 -1.18786C70.1661 -3.38192 68.3169 -8.53798 67.7684 -10.6694C67.2198 -12.8164 67.2198 -14.2739 65.2452 -16.8911C63.2548 -19.5083 61.2802 -24.3822 61.813 -26.4039C62.1578 -27.1718 63.5056 -27.4069 63.5056 -27.4069L77.0304 -0.0594806Z" fill="#AAEEED"/>
<path d="M561.696 -2.00327C561.304 -1.25101 561.602 0.269158 564.611 1.52291C567.636 2.77666 573.09 2.24382 575.252 1.82068C577.415 1.39754 578.747 0.770663 581.944 1.42888C585.157 2.10277 590.407 1.80501 592.006 0.457232C592.554 -0.185315 592.194 -1.50175 592.194 -1.50175L561.696 -2.00327Z" fill="#8FC9C6"/>
<path d="M590.486 -11.3905C590.925 -9.1808 592.727 -4.00909 592.21 -1.48592C589.953 0.426055 585.126 0.551432 581.506 -0.357538C577.886 -1.26651 575.331 0.582782 570.786 0.849204C566.32 1.11563 562.605 -0.122464 561.697 -2.00309C560.709 -4.04044 568.498 -5.62328 573.795 -7.25316C579.735 -9.0711 582.807 -12.0017 582.807 -12.0017L590.486 -11.3905Z" fill="#228C7E"/>
<path d="M633.771 -0.0600909C634.273 0.629472 635.777 1.0056 638.206 -1.18847C640.636 -3.38253 642.485 -8.53859 643.033 -10.67C643.582 -12.817 643.582 -14.2745 645.556 -16.8917C647.547 -19.5089 649.537 -24.3829 648.989 -26.4045C648.644 -27.1725 647.296 -27.4075 647.296 -27.4075L633.771 -0.0600909Z" fill="#AAEEED"/>
</g>
<defs>
<clipPath id="clip0_0_1">
<rect width="1728" height="10049" fill="white" transform="translate(-37 -5056)"/>
</clipPath>
</defs>
</svg>
