<svg width="499" height="62" viewBox="0 0 499 62" fill="none" xmlns="http://www.w3.org/2000/svg">
<rect width="499" height="62" fill="#F5F5F5"/>
<g clip-path="url(#clip0_0_1)">
<rect width="1728" height="10049" transform="translate(-147 -5061)" fill="white"/>
<path d="M454.519 -3.66578C454.519 -3.66578 433.769 0.393236 423.347 -10.7495C412.91 -21.8922 425.479 -30.7468 417.423 -39.241C409.368 -47.7351 402.253 -47.265 400.357 -55.3203C398.46 -63.3757 408.318 -63.5951 407.362 -71.6504C406.406 -79.7058 396.251 -83.6708 400.623 -91.0522C402.676 -94.5314 409.619 -97.5717 420.009 -90.7388C425.306 -87.2596 431.371 -83.8275 437.342 -83.8275C444.63 -83.8275 450.115 -81.7275 450.946 -71.478C451.776 -61.213 451.635 -52.6404 460.145 -46.5127C471.617 -38.2693 479.202 -19.6354 454.519 -3.66578Z" fill="#91DBAC"/>
<path d="M449.403 62H49.5975C22.2123 62 0 39.6667 0 12.0972V0H499V12.0972C499 39.6667 476.803 62 449.403 62Z" fill="#DDF8F3"/>
</g>
<defs>
<clipPath id="clip0_0_1">
<rect width="1728" height="10049" fill="white" transform="translate(-147 -5061)"/>
</clipPath>
</defs>
</svg>
